<svg xmlns="http://www.w3.org/2000/svg" width="62.374" height="35.227" viewBox="0 0 62.374 35.227">
  <defs>
    <style>
      .cls-1 {
        fill: #7b3ff2;
      }

      .cls-2 {
        fill: #fbfbfb;
      }
    </style>
  </defs>
  <g id="Group_7127" data-name="Group 7127" transform="translate(-88.626 468.419)">
    <path id="Path_10534" data-name="Path 10534" class="cls-1" d="M953.588,2297.867a42.026,42.026,0,0,0-4.659-2.7c-.485-.248-.655-.378-.166-.817,1.512-1.359,2.94-2.812,4.517-4.1a11.633,11.633,0,0,0,1.091-1.03.613.613,0,0,0-.019-.881.555.555,0,0,0-.855-.048,5.714,5.714,0,0,0-.538.458c-1.516,1.444-3.026,2.894-4.547,4.331-.146.14-.231.416-.547.338.283-2.349.67-4.668,1.147-6.974A65.684,65.684,0,0,1,950.9,2279c.145-.434.247-.9-.161-1.228a1.233,1.233,0,0,0-1.261-.02,1.789,1.789,0,0,0-.822.644,4.983,4.983,0,0,0-.8,1.757A71.054,71.054,0,0,0,945.6,2296.3a2.706,2.706,0,0,1-1.6,2.48c-.906.526-1.586.145-1.62-.911-.034-1.088.009-2.182.077-3.269a10.563,10.563,0,0,0-.125-2.729c-.261-1.323-1.1-1.634-2.158-.8a12.725,12.725,0,0,0-1.159,1.089c-.888.9-1.587,1.952-2.441,2.923a6.2,6.2,0,0,1,.412-2.337,10.925,10.925,0,0,0,.794-2.883c.019-.507.224-1.148-.439-1.384a1.475,1.475,0,0,0-1.69.662,2.146,2.146,0,0,0-.383.975c-.326,1.7-.677,3.4-1.015,5.1a30.432,30.432,0,0,0-.723,5.509c0,.367.016.739.4.9.417.174.732-.067,1.012-.352a3.972,3.972,0,0,0,.69-1.225,26.485,26.485,0,0,1,3.9-6.386c.259-.3.564-.827.949-.684.482.18.261.783.236,1.194a16.779,16.779,0,0,0,.023,4.229c.377,1.936,1.638,2.536,3.372,1.594.475-.257.914-.583,1.453-.933,0,.531-.025.944.005,1.354a13.961,13.961,0,0,0,.312,2.715.628.628,0,0,0,.615.53.647.647,0,0,0,.7-.539,3.624,3.624,0,0,0,.1-.694c.127-1.674.261-3.347.365-5.022.044-.7.325-.785.9-.474,1.422.776,2.847,1.544,4.291,2.281.519.264,1.231.875,1.644.22C954.961,2298.7,954.12,2298.234,953.588,2297.867Z" transform="translate(-813.685 -2744.443)"/>
    <path id="Path_10536" data-name="Path 10536" class="cls-1" d="M933.16,2287.479a3.156,3.156,0,0,0-3.405.873,8.655,8.655,0,0,0-2.608,7.634c.31,2.339,2.194,3.229,4.3,2.146a4.192,4.192,0,0,0,.673-.421c2.059-1.6,2.691-3.835,2.757-6.3a7.34,7.34,0,0,0-.01-1.146C934.688,2289.1,934.4,2287.921,933.16,2287.479Zm-1.171,8.941a1.817,1.817,0,0,1-1.889.68,1.69,1.69,0,0,1-1-1.726,7.9,7.9,0,0,1,1.672-5.349,1.622,1.622,0,0,1,1.831-.754c.77.258.968.967,1.059,1.692.041.319.034.645.046.874A6.24,6.24,0,0,1,931.989,2296.421Z" transform="translate(-815.424 -2741.835)"/>
    <path id="Path_10535" data-name="Path 10535" class="cls-1" d="M954.064,2287.775c-2.563,1.473-4.234,6.32-3.133,9.082a2.529,2.529,0,0,0,3.361,1.577,4.467,4.467,0,0,0,1.544-.833c1.936-1.618,2.54-3.807,2.657-6.2a6.99,6.99,0,0,0-.179-1.759A2.671,2.671,0,0,0,954.064,2287.775Zm3.195,4.2a6.215,6.215,0,0,1-1.671,4.419,1.816,1.816,0,0,1-1.963.7c-.8-.3-.95-1.082-.974-1.833a8.1,8.1,0,0,1,1.426-4.91c.472-.7,1.095-1.359,2.034-1.08.981.292,1.078,1.216,1.146,2.087C957.272,2291.558,957.259,2291.766,957.259,2291.971Z" transform="translate(-809.1 -2741.839)"/>
    <path id="Path_10539" data-name="Path 10539" class="cls-1" d="M922.934,2288.153a8.974,8.974,0,0,0-2.728,8.323,2.638,2.638,0,0,0,3.862,1.825,5.435,5.435,0,0,0,2.346-1.947,9.524,9.524,0,0,0,1.52-5.188c-.033-.252-.082-.69-.15-1.125C927.359,2287.312,925.112,2286.439,922.934,2288.153Zm2.21,8.094a3.273,3.273,0,0,1-.459.41,1.61,1.61,0,0,1-1.708.421,1.665,1.665,0,0,1-.88-1.528,7.479,7.479,0,0,1-.005-.792,7.992,7.992,0,0,1,1.591-4.672,1.75,1.75,0,0,1,1.812-.838c.732.171.978.813,1.086,1.47A6.627,6.627,0,0,1,925.144,2296.248Z" transform="translate(-817.321 -2741.841)"/>
    <path id="Path_10541" data-name="Path 10541" class="cls-1" d="M921.577,2282.348c-.313-3.282-2.312-4.334-5.084-2.534a11.311,11.311,0,0,0-5.028,7.3,5.756,5.756,0,0,0,.123,3.475c.2.485.556.828,1.1.639.586-.206.384-.7.249-1.118a4.273,4.273,0,0,1-.371-1.711,9.287,9.287,0,0,1,3.52-6.68c.66-.534,1.4-1.186,2.292-.756s.85,1.4.892,2.253a33.678,33.678,0,0,1-1.322,9.319,2.789,2.789,0,0,1-.925,1.529,24.02,24.02,0,0,0-6.119,8.446,8.513,8.513,0,0,0-.5,5.358,1.691,1.691,0,0,0,2.584,1.21,4.3,4.3,0,0,0,1.148-.815,11.2,11.2,0,0,0,2.12-2.917,37.306,37.306,0,0,0,3.116-8.7c.276-1.125.349-2.322,1.676-2.855a.851.851,0,0,0,.5-1.035c-.183-.541-.665-.081-1.073-.226A28.337,28.337,0,0,0,921.577,2282.348Zm-8.268,23.563c-.293.532-.573,1.434-1.3,1.205s-.407-1.12-.379-1.725a9.087,9.087,0,0,1,1.071-3.427,19.8,19.8,0,0,1,4.369-6.213A47.861,47.861,0,0,1,913.309,2305.911Z" transform="translate(-819.959 -2744.079)"/>
    <path id="Path_10542" data-name="Path 10542" class="cls-2" d="M912.411,2298.4a9.087,9.087,0,0,0-1.071,3.427c-.028.6-.342,1.5.379,1.725s1.009-.672,1.3-1.205a47.862,47.862,0,0,0,3.759-10.16A19.8,19.8,0,0,0,912.411,2298.4Z" transform="translate(-819.672 -2740.518)"/>
    <path id="Path_10533" data-name="Path 10533" class="cls-2" d="M970.989,2291.991c-.8-3.615-4.514-4.271-7.133-2.259a8.939,8.939,0,0,0-3.072,4.535c-.2.63-.089,1.641-.625,1.8-.457.136-1.142-.579-1.756-.849-.679-.3-.65-.57-.124-1.026,1.287-1.122,2.572-2.248,3.793-3.441a2.26,2.26,0,0,0-2.983-3.394c-.842.571-1.416,1.445-2.35,2.076.1-.573.187-1.03.272-1.488.533-2.881,1.3-5.706,2.106-8.52a2.284,2.284,0,0,0-2.432-3.07,3.645,3.645,0,0,0-3.481,2.871,61.936,61.936,0,0,0-2.3,12.694,6.529,6.529,0,0,0-.25,1.142c-.023.546.046,1.1-.006,1.422,0-.34,0-.9,0-1.454-.017-.2.06-.4-.074-.584-.142-2.182-1.637-3.939-4.373-2.707-.9-2.272-1.2-2.61-2.544-2.593-1.857.022-2.852,1.141-3.385,2.867a4.417,4.417,0,0,0-4.385-1.237c-1.647.375-2.673,1.583-3.75,2.814-.134-.288-.226-.5-.327-.7a3.951,3.951,0,0,0-4.387-2.171,5.882,5.882,0,0,0-3.717,2.313c-.244.312-.377.774-.927.927.1-.476.2-.869.275-1.266.6-3.2,1.007-6.4.058-9.6a3.715,3.715,0,0,0-3.181-3.013,5.491,5.491,0,0,0-3.6.832,12.864,12.864,0,0,0-5.878,7.648,8.364,8.364,0,0,0-.079,5.2,2.562,2.562,0,0,0,3.21,1.738,2.207,2.207,0,0,0,1.222-3.064c-.938-2.614,1.25-5.877,2.885-6.965.237-.157.3-.047.337.156a7.322,7.322,0,0,1,0,2.106,37.423,37.423,0,0,1-.932,5.55c-.224.823-.175,1.747-.938,2.4a22.156,22.156,0,0,0-3.6,3.993c-2.125,2.987-3.863,6.106-3.6,9.981.131,1.96.987,3.407,2.536,3.8,2.111.532,3.554-.587,4.811-2.045a20.836,20.836,0,0,0,3.475-6.594c.606-1.636,1.03-3.332,1.53-5.224.207,2.28.556,4.367,2.724,5.2,2.782,1.063,4.891-.334,6.644-2.419a4.571,4.571,0,0,0,2.7,2.572,5.106,5.106,0,0,0,4.565-.972c.457-.333.615-.4.8.246a2.1,2.1,0,0,0,2.463,1.375,3.266,3.266,0,0,0,2.293-2.012,24.725,24.725,0,0,1,2.088-3.933,8.092,8.092,0,0,0,.421,2.3,3.23,3.23,0,0,0,3.82,2.354c.758-.13.877.01.95.716.12,1.135.446,2.228,1.785,2.543,1.656.391,2.888-.687,2.97-2.562.052-1.157.136-2.312.207-3.5a3.36,3.36,0,0,1,.339.091c1.694.719,3.091,2.209,5.15,1.984.056-.006.135.1.186.17,1.656,2.156,5.1,1.5,6.727-.013A9.633,9.633,0,0,0,970.989,2291.991Zm-49.106,1.462a.851.851,0,0,1-.5,1.035c-1.327.533-1.4,1.729-1.676,2.855a37.3,37.3,0,0,1-3.116,8.7,11.2,11.2,0,0,1-2.12,2.917,4.3,4.3,0,0,1-1.148.815,1.69,1.69,0,0,1-2.584-1.21,8.513,8.513,0,0,1,.5-5.357,24.022,24.022,0,0,1,6.119-8.446,2.787,2.787,0,0,0,.925-1.529,33.675,33.675,0,0,0,1.322-9.319c-.042-.857-.01-1.828-.892-2.253s-1.633.222-2.293.756a9.287,9.287,0,0,0-3.519,6.68,4.272,4.272,0,0,0,.37,1.711c.136.419.338.912-.248,1.118-.541.189-.9-.154-1.1-.639a5.753,5.753,0,0,1-.123-3.475,11.311,11.311,0,0,1,5.028-7.3c2.772-1.8,4.77-.748,5.084,2.534a28.337,28.337,0,0,1-1.105,10.183C921.218,2293.371,921.7,2292.912,921.883,2293.453Zm7.507,5.835a5.438,5.438,0,0,1-2.346,1.948,2.638,2.638,0,0,1-3.862-1.825,8.975,8.975,0,0,1,2.728-8.323c2.178-1.714,4.425-.841,4.85,1.888.067.435.117.873.15,1.125A9.523,9.523,0,0,1,929.39,2299.288Zm10.362-4.942c-.066,2.469-.7,4.706-2.757,6.3a4.211,4.211,0,0,1-.672.421c-2.11,1.082-3.994.193-4.3-2.146a8.653,8.653,0,0,1,2.609-7.634,3.155,3.155,0,0,1,3.405-.873c1.241.442,1.528,1.621,1.709,2.783A7.332,7.332,0,0,1,939.752,2294.346Zm21.359,5.421c-.413.655-1.125.043-1.644-.221-1.444-.736-2.869-1.5-4.291-2.28-.572-.312-.853-.228-.9.473-.1,1.675-.238,3.348-.365,5.021a3.629,3.629,0,0,1-.1.694.647.647,0,0,1-.7.54.629.629,0,0,1-.615-.53,13.954,13.954,0,0,1-.312-2.715c-.03-.41-.005-.823-.005-1.354-.539.349-.978.675-1.453.932-1.734.943-3,.343-3.372-1.594a16.769,16.769,0,0,1-.023-4.229c.025-.411.246-1.013-.236-1.194-.384-.143-.69.381-.949.684a26.5,26.5,0,0,0-3.9,6.387,3.965,3.965,0,0,1-.69,1.224c-.28.285-.6.527-1.013.353-.388-.163-.41-.535-.4-.9a30.405,30.405,0,0,1,.723-5.509c.338-1.7.689-3.4,1.015-5.1a2.147,2.147,0,0,1,.383-.975,1.473,1.473,0,0,1,1.69-.662c.663.236.458.877.439,1.384a10.927,10.927,0,0,1-.794,2.882,6.2,6.2,0,0,0-.412,2.337c.854-.971,1.553-2.025,2.441-2.923a12.71,12.71,0,0,1,1.16-1.089c1.056-.83,1.9-.518,2.158.8a10.564,10.564,0,0,1,.126,2.729c-.068,1.087-.112,2.181-.077,3.27.034,1.055.714,1.438,1.62.911a2.705,2.705,0,0,0,1.6-2.48,71.042,71.042,0,0,1,2.256-16.143,4.98,4.98,0,0,1,.8-1.757,1.79,1.79,0,0,1,.822-.644,1.233,1.233,0,0,1,1.261.019c.409.326.306.794.161,1.228a65.7,65.7,0,0,0-1.892,7.435c-.477,2.306-.864,4.625-1.147,6.974.316.078.4-.2.547-.338,1.521-1.437,3.031-2.887,4.547-4.331a5.829,5.829,0,0,1,.538-.458.555.555,0,0,1,.855.049.613.613,0,0,1,.019.88,11.6,11.6,0,0,1-1.091,1.031c-1.577,1.29-3,2.743-4.517,4.1-.488.439-.318.568.166.816a42.025,42.025,0,0,1,4.659,2.7C960.731,2298.566,961.573,2299.035,961.111,2299.767Zm8.579-5.433c-.117,2.394-.721,4.584-2.657,6.2a4.476,4.476,0,0,1-1.544.833,2.529,2.529,0,0,1-3.361-1.577c-1.1-2.762.57-7.608,3.133-9.082a2.671,2.671,0,0,1,4.25,1.865A6.987,6.987,0,0,1,969.69,2294.334Z" transform="translate(-820.297 -2744.774)"/>
    <path id="Path_10537" data-name="Path 10537" class="cls-2" d="M932.169,2288.868a1.621,1.621,0,0,0-1.831.754,7.906,7.906,0,0,0-1.672,5.349,1.69,1.69,0,0,0,1,1.726,1.816,1.816,0,0,0,1.889-.679,6.241,6.241,0,0,0,1.717-4.584c-.011-.229-.005-.555-.046-.874C933.137,2289.835,932.939,2289.126,932.169,2288.868Zm-1.944,6.045a7.33,7.33,0,0,1,1.274-4.169A4.073,4.073,0,0,1,930.225,2294.914Z" transform="translate(-814.993 -2741.432)"/>
    <path id="Path_10538" data-name="Path 10538" class="cls-2" d="M955.675,2288.859c-.939-.279-1.562.384-2.034,1.08a8.1,8.1,0,0,0-1.426,4.91c.024.751.179,1.531.974,1.833a1.817,1.817,0,0,0,1.963-.7,6.215,6.215,0,0,0,1.671-4.419c0-.205.013-.414,0-.617C956.753,2290.076,956.656,2289.151,955.675,2288.859Zm-1.878,6.213a7.324,7.324,0,0,1,1.359-4.474A5.249,5.249,0,0,1,953.8,2295.072Z" transform="translate(-808.664 -2741.432)"/>
    <path id="Path_10540" data-name="Path 10540" class="cls-2" d="M925.052,2288.837a1.751,1.751,0,0,0-1.812.839,7.992,7.992,0,0,0-1.591,4.672,7.509,7.509,0,0,0,.005.793,1.665,1.665,0,0,0,.881,1.528,1.611,1.611,0,0,0,1.708-.421,3.322,3.322,0,0,0,.459-.409,6.627,6.627,0,0,0,1.436-5.531C926.031,2289.651,925.784,2289.009,925.052,2288.837Zm-1.656,6.031a4.654,4.654,0,0,1,1.243-4.106A5.523,5.523,0,0,1,923.4,2294.868Z" transform="translate(-816.879 -2741.431)"/>
  </g>
</svg>
